<?xml version="1.0" encoding="utf-8"?>
<!-- Generator: Adobe Illustrator 16.0.3, SVG Export Plug-In . SVG Version: 6.00 Build 0)  -->
<!DOCTYPE svg PUBLIC "-//W3C//DTD SVG 1.1//EN" "http://www.w3.org/Graphics/SVG/1.1/DTD/svg11.dtd">
<svg version="1.1" id="Layer_1" xmlns="http://www.w3.org/2000/svg" xmlns:xlink="http://www.w3.org/1999/xlink" x="0px" y="0px"
	 width="648px" height="288px" viewBox="0 0 648 288" enable-background="new 0 0 648 288" xml:space="preserve">
<g>
	<path fill="#FFFFFF" d="M18.423,262.982c-7.447,0-13.506-5.967-13.506-13.299V38.317c0-7.333,6.059-13.299,13.506-13.299h611.156
		c7.446,0,13.504,5.966,13.504,13.299v211.367c0,7.332-6.058,13.299-13.504,13.299H18.423z"/>
	<path fill="#666666" d="M629.579,30.019c4.695,0,8.504,3.715,8.504,8.299v211.366c0,4.586-3.809,8.299-8.504,8.299H18.423
		c-4.698,0-8.506-3.713-8.506-8.299V38.317c0-4.583,3.808-8.299,8.506-8.299L629.579,30.019 M629.579,20.019H18.423
		c-10.204,0-18.506,8.209-18.506,18.299v211.366c0,10.09,8.302,18.299,18.506,18.299h611.156c10.203,0,18.504-8.209,18.504-18.299
		V38.317C648.083,28.228,639.782,20.019,629.579,20.019L629.579,20.019z"/>
</g>
<g>
	<path fill="#333333" stroke="#0F0F0F" stroke-width="2" stroke-miterlimit="10" d="M56.483,75.996"/>
	<rect x="61.007" y="73.228" fill="#333333" width="3.6" height="55.405"/>
	<rect x="50.202" y="128.633" fill="#333333" width="10.8" height="3.6"/>
	<rect x="64.602" y="128.633" fill="#333333" width="10.8" height="3.6"/>
	<rect x="50.207" y="69.627" fill="#333333" width="10.8" height="3.6"/>
	<rect x="64.607" y="69.627" fill="#333333" width="10.8" height="3.6"/>
</g>
</svg>
